<svg height="584pt" viewBox="-86 -18 584 584.00179" width="584pt" xmlns="http://www.w3.org/2000/svg"><path d="m366.59375 547.5c22.023438 0 39.9375-17.285156 39.9375-38.53125 0-21.25-17.914062-38.539062-39.9375-38.539062-18.910156 0-34.78125 12.75-38.898438 29.804687h-147.058593c-22.722657-.027344-41.136719-18.441406-41.167969-41.164063v-66.113281h88.433594c4.117187 17.050781 19.988281 29.800781 38.898437 29.800781 22.019531 0 39.9375-17.289062 39.9375-38.535156 0-21.25-17.917969-38.539062-39.9375-38.539062-18.910156 0-34.78125 12.753906-38.898437 29.808594h-88.433594v-52.636719c17.839844-3.851563 31.210938-19.238281 31.210938-37.59375 0-21.246094-17.917969-38.53125-39.941407-38.53125-22.019531 0-39.9375 17.285156-39.9375 38.53125 0 18.355469 13.371094 33.742187 31.207031 37.59375v136.214843c.039063 32.363282 26.261719 58.589844 58.628907 58.628907h147.058593c4.117188 17.050781 19.988282 29.800781 38.898438 29.800781zm0 0"/><path d="m-4.566406 23.964844v176.804687c.015625 13.222657 10.738281 23.945313 23.964844 23.957031h3.441406c13.226562-.011718 23.945312-10.734374 23.960937-23.957031v-99.804687c.027344-22.867188 18.558594-41.398438 41.425781-41.425782h142.167969c-1.089843-12.375-11.445312-21.867187-23.871093-21.882812h-61.351563c-4.742187-.007812-9.269531-2.003906-12.476563-5.5l-22.261718-24.359375c-4.546875-4.960937-10.964844-7.79296875-17.6875-7.796875h-73.351563c-13.222656.0195312-23.945312 10.734375-23.960937 23.964844zm0 0"/><path d="m64.261719 100.964844v99.804687c.011719 8.585938-2.660157 16.964844-7.644531 23.957031h190c13.230468-.011718 23.949218-10.734374 23.964843-23.957031v-99.804687c-.015625-13.226563-10.734375-23.945313-23.964843-23.960938h-158.390626c-13.226562.015625-23.949218 10.734375-23.964843 23.960938zm0 0"/></svg>